<svg width="60" height="60" viewBox="0 0 60 60" fill="none" xmlns="http://www.w3.org/2000/svg">
<path d="M56.2499 29.9133C56.2716 37.8748 52.9664 45.5202 47.0578 51.1759C44.141 53.9677 40.6706 56.1846 36.8466 57.699C33.0225 59.2134 28.9203 59.9954 24.7762 59.9999H5.1575C4.95614 60.0019 4.75684 59.9614 4.57399 59.8814C4.39115 59.8014 4.22933 59.6838 4.10022 59.5373C3.96597 59.3911 3.86647 59.2192 3.80849 59.0333C3.75051 58.8474 3.73541 58.6519 3.7642 58.4599C4.98738 51.2653 11.4984 45.9746 19.1453 45.9626H24.7748C33.472 45.9146 40.6986 39.5573 41.4452 31.2986C41.486 30.8653 41.5042 30.432 41.5042 29.836C41.5042 29.4986 41.5042 29.1906 41.4578 28.896C40.8673 20.5666 33.4453 14.0453 24.5709 14.0453H19.1636C17.1175 14.0512 15.0905 13.6718 13.2001 12.9294C11.3097 12.1869 9.59342 11.096 8.15078 9.71999C5.83587 7.49463 4.31078 4.63976 3.7881 1.55333C3.72343 1.16667 3.83591 0.770666 4.09741 0.466666C4.36595 0.170666 4.75821 0 5.16875 0H24.4584C41.9415 0 56.2007 13.4133 56.2499 29.9133Z" fill="#00ADEE"/>
<path d="M15.8667 30C15.8663 28.7427 16.1271 27.4976 16.6343 26.336C17.1415 25.1744 17.8851 24.1189 18.8225 23.2298C19.76 22.3408 20.873 21.6356 22.0979 21.1547C23.3228 20.6737 24.6356 20.4263 25.9614 20.4266C27.958 20.4266 29.9097 20.9881 31.5698 22.04C33.2298 23.092 34.5237 24.5871 35.2877 26.3364C36.0518 28.0857 36.2517 30.0106 35.8622 31.8676C35.4727 33.7247 34.5113 35.4305 33.0995 36.7693C31.6877 38.1082 29.889 39.02 27.9308 39.3893C25.9726 39.7587 23.9429 39.5691 22.0983 38.8446C20.2537 38.12 18.6772 36.8929 17.5679 35.3186C16.4587 33.7443 15.8667 31.8934 15.8667 30Z" fill="#FD8204"/>
</svg>
